<?xml version="1.0" standalone="no"?>
<!DOCTYPE svg PUBLIC "-//W3C//DTD SVG 20010904//EN"
 "http://www.w3.org/TR/2001/REC-SVG-20010904/DTD/svg10.dtd">
<svg version="1.0" xmlns="http://www.w3.org/2000/svg"
 width="1280.000000pt" height="932.000000pt" viewBox="0 0 1280.000000 932.000000"
 preserveAspectRatio="xMidYMid meet">

<g transform="translate(0.000000,932.000000) scale(0.100000,-0.100000)"
fill="#000000" stroke="none">
<path d="M5070 9019 c-635 -165 -1279 -331 -1430 -370 -869 -225 -1151 -299
-1160 -304 -4 -2 -20 -7 -36 -10 -16 -3 -65 -14 -109 -26 -44 -11 -96 -24
-115 -29 -19 -4 -62 -16 -95 -25 -33 -9 -67 -18 -75 -20 -8 -2 -30 -8 -47 -14
-18 -5 -33 -8 -33 -5 0 3 -8 0 -17 -5 -17 -8 -76 -25 -413 -112 -63 -17 -130
-32 -149 -35 -39 -5 -55 -14 -25 -14 10 0 255 -43 544 -95 289 -52 908 -162
1375 -245 468 -83 949 -168 1070 -190 121 -22 400 -71 620 -110 655 -116 896
-159 1180 -210 149 -27 503 -90 787 -140 l517 -91 1148 541 c631 298 1388 655
1681 793 292 139 532 254 532 257 0 5 -160 33 -605 105 -121 20 -382 62 -580
95 -398 65 -2266 370 -2940 480 -236 38 -439 72 -450 74 -11 2 -540 -131
-1175 -295z"/>
<path d="M7206 6557 c-412 -665 -1014 -1640 -1136 -1839 -97 -159 -117 -187
-134 -183 -12 3 -104 23 -206 45 -102 21 -549 118 -995 214 -445 96 -1019 220
-1275 275 -256 55 -643 138 -860 185 -217 47 -561 121 -765 165 -203 44 -398
86 -432 94 l-63 14 0 -1706 c0 -938 -3 -1757 -7 -1819 -6 -109 -5 -113 15
-118 11 -3 22 -14 25 -23 5 -22 58 -47 150 -73 104 -28 744 -204 867 -238 58
-16 263 -72 455 -125 331 -91 1040 -286 1840 -505 198 -54 493 -135 655 -180
162 -45 367 -101 455 -125 88 -24 315 -86 505 -139 573 -157 858 -236 991
-272 148 -40 212 -43 272 -13 23 12 206 128 407 259 201 131 678 441 1060 690
382 248 800 520 928 603 127 84 359 235 515 335 155 101 293 194 305 205 25
23 57 77 46 77 -4 0 1 9 12 21 18 20 19 70 15 1897 -1 1033 -4 1878 -6 1880
-3 3 -1278 -588 -1336 -619 -12 -6 -57 21 -180 108 -675 480 -1860 1313 -1866
1313 -4 0 -120 -181 -257 -403z m251 -2917 c-1 -1785 -3 -2406 -7 -1740 -6
1012 -6 1036 -25 1056 -21 22 -29 32 -85 104 -19 25 -37 47 -40 50 -3 3 -17
21 -30 40 -13 19 -27 37 -30 40 -3 3 -21 25 -40 50 -19 25 -37 47 -40 50 -3 3
-17 21 -32 42 -15 20 -34 42 -41 50 -7 7 -24 29 -37 48 -13 19 -27 37 -30 40
-3 3 -21 25 -40 50 -19 25 -40 52 -47 60 -7 8 -35 44 -63 80 -28 36 -56 72
-63 80 -7 8 -28 35 -47 60 -19 25 -40 52 -47 60 -7 8 -35 44 -63 80 -28 36
-56 72 -63 80 -7 8 -28 35 -47 60 -19 25 -37 47 -40 50 -3 3 -17 21 -30 40
-13 19 -30 41 -37 48 -7 8 -26 30 -41 50 -15 21 -29 39 -32 42 -3 3 -21 25
-40 50 -19 25 -37 47 -40 50 -3 3 -17 21 -30 40 -13 19 -37 49 -52 65 -28 30
-28 30 -6 34 20 3 19 5 -12 17 l-35 13 44 -6 c32 -4 42 -3 37 5 -5 9 0 9 19 2
34 -13 33 -14 30 14 -3 22 -1 23 39 15 22 -4 49 -11 60 -15 16 -6 17 -5 7 14
-8 15 -8 22 -1 22 5 0 10 -4 10 -10 0 -5 7 -6 17 -3 9 4 14 2 11 -3 -4 -5 18
-10 48 -10 29 -1 52 2 49 6 -3 4 2 11 11 14 24 9 31 7 14 -4 -10 -7 8 -8 55
-3 39 3 85 6 103 6 17 0 32 4 32 8 0 7 78 25 93 21 5 -2 6 2 2 8 -3 5 1 10 10
10 8 0 18 6 21 14 3 9 12 12 21 9 11 -4 14 -2 9 5 -4 7 -1 12 9 12 9 0 14 4
10 9 -3 5 4 16 15 24 11 7 17 17 13 20 -3 4 -1 7 6 7 7 0 19 17 28 38 8 20 20
43 26 51 6 7 13 25 15 39 2 14 9 40 17 59 8 18 17 52 21 76 7 49 12 72 14 72
1 0 4 14 6 30 2 17 9 50 15 75 6 25 12 59 15 75 4 36 7 49 28 138 9 37 18 82
21 100 3 17 15 75 26 127 10 52 26 131 34 175 8 44 19 100 24 125 35 163 43
199 46 230 2 19 8 47 14 63 6 15 9 27 6 27 -2 0 3 19 11 43 9 23 17 51 19 62
5 39 72 192 93 214 7 7 16 27 20 45 16 72 19 -349 19 -2994z"/>
<path d="M6245 4540 c11 -5 31 -8 45 -8 l25 0 -25 8 c-14 4 -34 8 -45 8 l-20
1 20 -9z"/>
</g>
</svg>
